<mxfile host="Electron" agent="Mozilla/5.0 (Windows NT 10.0; Win64; x64) AppleWebKit/537.36 (KHTML, like Gecko) draw.io/26.0.7 Chrome/128.0.6613.186 Electron/32.2.5 Safari/537.36" version="26.0.7">
  <diagram name="Page-1" id="h5mNpairQMjndRQDlEjY">
    <mxGraphModel dx="981" dy="725" grid="0" gridSize="10" guides="1" tooltips="1" connect="1" arrows="1" fold="1" page="1" pageScale="1" pageWidth="827" pageHeight="1169" math="0" shadow="0">
      <root>
        <mxCell id="0" />
        <mxCell id="1" parent="0" />
        <mxCell id="LXlQttP3euAjqA6qbs8Q-1" value="Student" style="swimlane;fontStyle=0;childLayout=stackLayout;horizontal=1;startSize=26;horizontalStack=0;resizeParent=1;resizeParentMax=0;resizeLast=0;collapsible=1;marginBottom=0;fillColor=#dae8fc;strokeColor=#6c8ebf;" parent="1" vertex="1">
          <mxGeometry x="998" y="94" width="240" height="114" as="geometry">
            <mxRectangle x="230" y="140" width="160" height="26" as="alternateBounds" />
          </mxGeometry>
        </mxCell>
        <mxCell id="LXlQttP3euAjqA6qbs8Q-2" value="+setGroupGrade(grade: int)&#xa;+getGroupGrade(): int&#xa;+getGroupTeacher(): Teacher&#xa;+setGroupTeacher(newTeacher: Teacher)&#xa;+hasPermission(): boolean" style="text;strokeColor=none;fillColor=none;align=left;verticalAlign=top;spacingLeft=4;spacingRight=4;overflow=hidden;rotatable=0;points=[[0,0.5],[1,0.5]];portConstraint=eastwest;" parent="LXlQttP3euAjqA6qbs8Q-1" vertex="1">
          <mxGeometry y="26" width="240" height="88" as="geometry" />
        </mxCell>
        <mxCell id="LXlQttP3euAjqA6qbs8Q-3" value="AStudent" style="swimlane;fontStyle=0;childLayout=stackLayout;horizontal=1;startSize=26;horizontalStack=0;resizeParent=1;resizeParentMax=0;resizeLast=0;collapsible=1;marginBottom=0;fillColor=#d5e8d4;strokeColor=#82b366;" parent="1" vertex="1">
          <mxGeometry x="1348" y="364" width="240" height="193" as="geometry" />
        </mxCell>
        <mxCell id="LXlQttP3euAjqA6qbs8Q-4" value="-name: String&#xa;-id: int&#xa;-{static} grade: int&#xa;-{static} groupTeacher: Teacher" style="text;strokeColor=none;fillColor=none;align=left;verticalAlign=top;spacingLeft=4;spacingRight=4;overflow=hidden;rotatable=0;points=[[0,0.5],[1,0.5]];portConstraint=eastwest;" parent="LXlQttP3euAjqA6qbs8Q-3" vertex="1">
          <mxGeometry y="26" width="240" height="66" as="geometry" />
        </mxCell>
        <mxCell id="LXlQttP3euAjqA6qbs8Q-5" value="+AStudent(name: String, id: int)&#xa;+setGroupGrade(grade: int)&#xa;+getGroupGrade(): int&#xa;+getGroupTeacher(): Teacher&#xa;+setGroupTeacher(newTeacher: Teacher)&#xa;+hasPermission(): boolean" style="text;strokeColor=none;fillColor=none;align=left;verticalAlign=top;spacingLeft=4;spacingRight=4;overflow=hidden;rotatable=0;points=[[0,0.5],[1,0.5]];portConstraint=eastwest;" parent="LXlQttP3euAjqA6qbs8Q-3" vertex="1">
          <mxGeometry y="92" width="240" height="101" as="geometry" />
        </mxCell>
        <mxCell id="LXlQttP3euAjqA6qbs8Q-6" value="BStudent" style="swimlane;fontStyle=0;childLayout=stackLayout;horizontal=1;startSize=26;horizontalStack=0;resizeParent=1;resizeParentMax=0;resizeLast=0;collapsible=1;marginBottom=0;fillColor=#d5e8d4;strokeColor=#82b366;" parent="1" vertex="1">
          <mxGeometry x="993" y="364" width="250" height="200" as="geometry" />
        </mxCell>
        <mxCell id="LXlQttP3euAjqA6qbs8Q-7" value="-name: String&#xa;-id: int&#xa;-{static} grade: int&#xa;-{static} groupTeacher: Teacher" style="text;strokeColor=none;fillColor=none;align=left;verticalAlign=top;spacingLeft=4;spacingRight=4;overflow=hidden;rotatable=0;points=[[0,0.5],[1,0.5]];portConstraint=eastwest;" parent="LXlQttP3euAjqA6qbs8Q-6" vertex="1">
          <mxGeometry y="26" width="250" height="70" as="geometry" />
        </mxCell>
        <mxCell id="LXlQttP3euAjqA6qbs8Q-8" value="+BStudent(name: String, id: int)&#xa;+setGroupGrade(grade: int)&#xa;+getGroupGrade(): int&#xa;+getGroupTeacher(): int&#xa;+setGroupTeacher(newTeacher: Teacher)&#xa;+hasPermission(): boolean" style="text;strokeColor=none;fillColor=none;align=left;verticalAlign=top;spacingLeft=4;spacingRight=4;overflow=hidden;rotatable=0;points=[[0,0.5],[1,0.5]];portConstraint=eastwest;" parent="LXlQttP3euAjqA6qbs8Q-6" vertex="1">
          <mxGeometry y="96" width="250" height="104" as="geometry" />
        </mxCell>
        <mxCell id="LXlQttP3euAjqA6qbs8Q-9" value="Teacher" style="swimlane;fontStyle=0;childLayout=stackLayout;horizontal=1;startSize=26;horizontalStack=0;resizeParent=1;resizeParentMax=0;resizeLast=0;collapsible=1;marginBottom=0;fillColor=#ffe6cc;strokeColor=#d79b00;" parent="1" vertex="1">
          <mxGeometry x="1305" y="94" width="280" height="100" as="geometry" />
        </mxCell>
        <mxCell id="LXlQttP3euAjqA6qbs8Q-10" value="-name: String" style="text;strokeColor=none;fillColor=none;align=left;verticalAlign=top;spacingLeft=4;spacingRight=4;overflow=hidden;rotatable=0;points=[[0,0.5],[1,0.5]];portConstraint=eastwest;" parent="LXlQttP3euAjqA6qbs8Q-9" vertex="1">
          <mxGeometry y="26" width="280" height="32" as="geometry" />
        </mxCell>
        <mxCell id="LXlQttP3euAjqA6qbs8Q-11" value="+Teacher(name: String)&#xa;+givePermission(student: Student): boolean" style="text;strokeColor=none;fillColor=none;align=left;verticalAlign=top;spacingLeft=4;spacingRight=4;overflow=hidden;rotatable=0;points=[[0,0.5],[1,0.5]];portConstraint=eastwest;" parent="LXlQttP3euAjqA6qbs8Q-9" vertex="1">
          <mxGeometry y="58" width="280" height="42" as="geometry" />
        </mxCell>
        <mxCell id="LXlQttP3euAjqA6qbs8Q-12" style="edgeStyle=orthogonalEdgeStyle;rounded=0;orthogonalLoop=1;jettySize=auto;html=1;entryX=0.5;entryY=1;entryDx=0;entryDy=0;entryPerimeter=0;dashed=1;endArrow=block;endFill=0;endSize=18;" parent="1" source="LXlQttP3euAjqA6qbs8Q-6" target="LXlQttP3euAjqA6qbs8Q-2" edge="1">
          <mxGeometry relative="1" as="geometry" />
        </mxCell>
        <mxCell id="LXlQttP3euAjqA6qbs8Q-13" style="edgeStyle=orthogonalEdgeStyle;rounded=0;orthogonalLoop=1;jettySize=auto;html=1;entryX=0.73;entryY=0.997;entryDx=0;entryDy=0;entryPerimeter=0;dashed=1;endArrow=block;endFill=0;endSize=18;" parent="1" source="LXlQttP3euAjqA6qbs8Q-3" target="LXlQttP3euAjqA6qbs8Q-2" edge="1">
          <mxGeometry relative="1" as="geometry" />
        </mxCell>
        <mxCell id="LXlQttP3euAjqA6qbs8Q-14" value="" style="endArrow=diamondThin;html=1;rounded=0;exitX=0.087;exitY=1.034;exitDx=0;exitDy=0;exitPerimeter=0;endFill=1;strokeWidth=1;endSize=24;" parent="1" source="LXlQttP3euAjqA6qbs8Q-11" edge="1">
          <mxGeometry width="50" height="50" relative="1" as="geometry">
            <mxPoint x="1328" y="154" as="sourcePoint" />
            <mxPoint x="1206" y="363" as="targetPoint" />
          </mxGeometry>
        </mxCell>
        <mxCell id="XmJHxn_09ZeOQybsirHt-2" value="" style="endArrow=diamondThin;html=1;rounded=0;exitX=0.55;exitY=1.013;exitDx=0;exitDy=0;exitPerimeter=0;endFill=1;strokeWidth=1;endSize=24;entryX=0.823;entryY=0;entryDx=0;entryDy=0;entryPerimeter=0;" parent="1" source="LXlQttP3euAjqA6qbs8Q-11" target="LXlQttP3euAjqA6qbs8Q-3" edge="1">
          <mxGeometry width="50" height="50" relative="1" as="geometry">
            <mxPoint x="1362" y="225" as="sourcePoint" />
            <mxPoint x="1216" y="373" as="targetPoint" />
          </mxGeometry>
        </mxCell>
      </root>
    </mxGraphModel>
  </diagram>
</mxfile>
